<?xml version="1.0" standalone="no"?>
<!DOCTYPE svg PUBLIC "-//W3C//DTD SVG 20010904//EN"
 "http://www.w3.org/TR/2001/REC-SVG-20010904/DTD/svg10.dtd">
<svg version="1.0" xmlns="http://www.w3.org/2000/svg"
 width="1280.000000pt" height="1280.000000pt" viewBox="0 0 1280.000000 1280.000000"
 preserveAspectRatio="xMidYMid meet">

<g transform="translate(0.000000,1280.000000) scale(0.100000,-0.100000)"
fill="#000000" stroke="none">
<path d="M6010 12250 c-1300 -89 -2521 -600 -3495 -1461 -969 -856 -1623
-1981 -1875 -3224 -199 -985 -139 -2067 166 -2990 256 -774 628 -1428 1165
-2046 148 -171 481 -497 659 -645 1231 -1026 2768 -1492 4380 -1329 1499 152
2899 903 3896 2090 1001 1192 1477 2717 1339 4290 -129 1471 -815 2835 -1925
3829 -410 367 -817 645 -1299 886 -643 322 -1288 507 -2036 585 -176 19 -786
28 -975 15z m1484 -2713 c657 -95 1089 -294 1451 -668 312 -321 456 -697 442
-1149 -8 -259 -48 -425 -152 -635 -129 -258 -360 -495 -665 -680 -93 -57 -388
-205 -409 -205 -29 0 -11 -37 112 -222 74 -112 181 -275 239 -363 93 -142 263
-399 656 -997 l117 -178 323 0 322 0 0 -600 0 -600 -1670 0 -1670 0 0 600 0
600 255 2 255 3 -233 370 c-229 365 -283 450 -563 895 l-142 225 -376 3 c-297
2 -376 0 -377 -10 0 -16 0 -1207 0 -1370 l1 -118 243 -2 242 -3 0 -595 0 -595
-1555 0 -1555 0 0 595 0 595 238 3 237 2 0 1960 0 1960 -225 1 c-124 1 -231 2
-237 3 -10 1 -14 129 -16 599 l-2 598 2297 -4 c2110 -3 2308 -5 2417 -20z
m2942 -5548 c70 -26 121 -72 160 -141 25 -46 29 -63 29 -133 -1 -103 -28 -168
-97 -230 -64 -58 -129 -79 -222 -73 -111 7 -190 56 -240 147 -137 253 101 530
370 430z"/>
<path d="M2954 9391 c-2 -2 -4 -197 -4 -433 l0 -428 240 0 240 0 -2 -2127 -3
-2128 -237 -3 -238 -2 0 -430 0 -430 1390 0 1390 0 0 430 0 430 -245 0 -245 0
0 920 0 920 507 -2 506 -3 37 -60 c21 -33 87 -139 148 -235 121 -192 554 -879
804 -1277 87 -138 158 -254 158 -257 0 -3 -142 -6 -316 -6 -174 0 -319 -1
-321 -4 -3 -3 -5 -499 -3 -819 l0 -37 1502 2 1501 3 -1 385 c0 212 -1 404 -1
427 l-1 43 -282 2 -283 3 -57 85 c-31 47 -149 227 -263 400 -114 173 -220 333
-234 354 -33 49 -14 20 -230 350 -101 155 -258 393 -349 530 -90 138 -166 256
-169 263 -5 14 -5 14 162 79 134 51 379 176 490 248 353 231 565 513 646 861
29 127 38 413 16 551 -48 301 -182 558 -407 784 -362 363 -882 569 -1528 606
-129 7 -4311 12 -4318 5z m3686 -883 c298 -66 510 -203 633 -410 106 -179 122
-424 40 -623 -106 -255 -353 -431 -708 -503 -201 -41 -253 -43 -1147 -42
l-218 0 0 801 0 800 663 -3 c568 -4 673 -6 737 -20z"/>
<path d="M5410 8353 c-1 -17 -1 -1229 -1 -1247 1 -18 17 -18 469 -13 486 5
579 12 738 52 198 50 330 121 434 232 127 136 174 303 136 485 -24 110 -61
174 -156 269 -100 98 -193 150 -350 196 l-95 27 -587 4 c-324 2 -588 0 -588
-5z"/>
<path d="M10234 3944 c-91 -33 -156 -131 -156 -234 0 -136 96 -238 235 -248
142 -11 267 106 267 249 0 89 -59 183 -140 224 -47 24 -154 29 -206 9z m212
-97 c43 -50 28 -118 -31 -143 l-34 -14 39 -70 c22 -38 40 -72 40 -75 0 -3 -12
-5 -27 -5 -24 0 -33 10 -68 75 -37 70 -42 75 -72 75 l-33 0 0 -75 c0 -73 -1
-75 -25 -75 l-25 0 0 171 0 171 106 -4 c102 -3 107 -5 130 -31z"/>
<path d="M10260 3790 c0 -34 3 -40 26 -46 26 -7 108 1 125 12 5 3 9 16 9 30 0
31 -31 44 -106 44 l-54 0 0 -40z"/>
</g>
</svg>
