<?xml version="1.0" standalone="no"?>
<!DOCTYPE svg PUBLIC "-//W3C//DTD SVG 20010904//EN"
 "http://www.w3.org/TR/2001/REC-SVG-20010904/DTD/svg10.dtd">
<svg version="1.0" xmlns="http://www.w3.org/2000/svg"
 width="1200.000000pt" height="1060.000000pt" viewBox="0 0 1200.000000 1060.000000"
 preserveAspectRatio="xMidYMid meet">

<g transform="translate(0.000000,1060.000000) scale(0.100000,-0.100000)"
fill="#000000" stroke="none">
<path d="M40 9550 l0 -1000 395 0 395 0 0 -3265 0 -3265 -395 0 -395 0 0
-1000 0 -1000 2590 0 2590 0 0 1000 0 1000 -410 0 -410 0 2 1247 3 1248 629 0
628 0 784 -1245 784 -1245 -425 -3 -425 -2 0 -1000 0 -1000 2780 0 2780 0 0
1000 0 1000 -537 0 -538 0 -900 1366 c-495 752 -925 1406 -957 1454 l-56 87
101 43 c162 69 429 204 592 301 752 448 1203 1033 1349 1751 92 450 61 965
-84 1397 -277 825 -1027 1518 -2009 1855 -464 159 -928 241 -1516 266 -152 6
-1541 10 -3792 10 l-3553 0 0 -1000z m6264 -1015 c310 -41 565 -146 764 -316
137 -117 229 -248 281 -405 75 -223 59 -479 -42 -679 -200 -399 -643 -624
-1342 -684 -68 -6 -432 -11 -842 -11 l-723 0 0 1055 0 1055 894 0 c741 0 915
-3 1010 -15z"/>
</g>
</svg>
